<?xml version="1.0" standalone="no"?>
<!DOCTYPE svg PUBLIC "-//W3C//DTD SVG 20010904//EN"
 "http://www.w3.org/TR/2001/REC-SVG-20010904/DTD/svg10.dtd">
<svg version="1.0" xmlns="http://www.w3.org/2000/svg"
 width="1024.000000pt" height="1024.000000pt" viewBox="0 0 1024.000000 1024.000000"
 preserveAspectRatio="xMidYMid meet">
<metadata>
Created by potrace 1.14, written by Peter Selinger 2001-2017
</metadata>
<g transform="translate(0.000000,1024.000000) scale(0.100000,-0.100000)"
fill="#000000" stroke="none">
<path d="M4135 9140 c-281 -60 -485 -298 -485 -567 0 -119 34 -217 112 -321
38 -52 40 -56 34 -110 -14 -118 32 -299 91 -364 15 -17 3 -18 -255 -18 -301 0
-367 -8 -500 -60 -144 -57 -265 -180 -327 -332 l-30 -73 0 -1460 0 -1460 28
-57 c62 -127 176 -206 308 -216 111 -8 205 27 294 110 l42 38 7 -53 c3 -28 6
-635 6 -1347 l0 -1295 -48 -19 c-71 -29 -152 -87 -215 -155 l-56 -61 -413 0
c-395 0 -414 -1 -446 -20 -43 -26 -57 -63 -42 -113 6 -20 21 -44 34 -52 20
-13 353 -15 2875 -13 l2853 3 24 28 c28 33 32 82 8 115 -30 43 -64 52 -197 52
-93 0 -127 3 -136 14 -7 8 -9 38 -5 87 4 45 2 91 -5 116 -17 63 -68 124 -130
156 -50 25 -64 27 -168 27 l-113 0 0 3400 0 3400 84 0 c150 0 249 54 295 161
20 45 22 66 19 156 -3 96 -5 106 -27 124 -22 18 -48 19 -683 19 l-659 0 -26
-26 c-25 -25 -25 -28 -21 -132 6 -153 44 -219 154 -273 45 -22 64 -24 212 -27
l162 -3 0 -105 c0 -57 -3 -104 -6 -104 -3 0 -33 24 -66 54 -36 33 -72 56 -91
60 -18 3 -98 5 -178 5 -125 1 -148 -2 -153 -15 -3 -9 -6 -694 -6 -1522 l0
-1507 -221 -55 c-229 -57 -257 -69 -233 -107 5 -9 106 -71 223 -138 117 -67
218 -129 224 -136 9 -11 11 -409 9 -1622 l-2 -1607 -48 0 c-98 0 -194 -72
-227 -169 -19 -56 -19 -104 0 -167 8 -27 15 -52 15 -56 0 -5 -150 -8 -332 -7
l-333 0 -41 52 c-36 46 -132 119 -223 169 l-31 17 1 1308 c1 719 3 1323 6
1340 l5 33 44 -39 c196 -172 491 -111 601 124 l28 60 3 1385 c2 893 -1 1412
-7 1462 -14 103 -40 174 -96 259 -79 118 -201 205 -345 244 -53 15 -122 19
-378 24 l-312 6 26 39 c53 77 68 140 69 276 l1 126 44 54 c162 205 141 502
-49 699 -122 126 -247 181 -426 187 -60 2 -128 -1 -150 -6z m295 -226 c241
-115 326 -381 170 -536 -36 -37 -54 -48 -79 -48 l-31 0 0 -100 0 -100 -50 0
c-43 0 -50 3 -50 19 0 40 -11 51 -50 51 -36 0 -39 -2 -42 -32 -3 -30 -6 -33
-37 -33 -31 0 -36 4 -43 33 -8 29 -12 32 -48 32 -36 0 -39 -2 -42 -32 -3 -32
-5 -33 -50 -36 l-47 -3 -3 96 -3 97 -40 13 c-23 8 -56 32 -77 55 -103 115 -86
299 40 428 94 96 186 133 327 129 77 -2 100 -7 155 -33z m3080 -133 c0 -17 -4
-33 -10 -36 -5 -3 -10 0 -10 7 0 16 -509 23 -843 12 -181 -6 -205 -9 -200 -23
4 -14 3 -14 -6 -1 -6 8 -11 27 -11 43 l0 27 540 0 540 0 0 -29z m-30 -64 c0
-19 -44 -37 -88 -36 -41 1 -36 4 21 14 21 3 35 10 32 15 -4 6 1 7 11 3 12 -4
15 -3 10 5 -4 7 -2 12 3 12 6 0 11 -6 11 -13z m-950 -27 l35 -10 -40 6 c-22 3
-47 12 -55 21 -13 14 -13 14 5 4 11 -6 36 -15 55 -21z m482 -7 c-51 -2 -132
-2 -180 0 -48 1 -6 3 93 3 99 0 138 -2 87 -3z m104 -3560 c-3 -1869 -6 -3399
-6 -3400 0 -2 -40 -3 -89 -3 -72 0 -90 3 -95 16 -3 9 -6 1539 -6 3400 l0 3384
101 0 101 0 -6 -3397z m-498 3001 c24 -17 29 -56 9 -72 -14 -12 -58 -16 -129
-14 l-48 2 0 44 c0 50 4 52 95 55 32 0 59 -5 73 -15z m-2132 -115 c-3 -17 -6
-37 -6 -44 0 -23 -62 -74 -108 -90 -87 -29 -217 -14 -280 32 -39 29 -58 57
-67 101 l-7 32 237 0 238 0 -7 -31z m2146 -124 c8 -19 8 -31 0 -50 -12 -25
-15 -26 -94 -23 l-83 3 -3 33 c-6 58 -1 62 88 62 76 0 81 -1 92 -25z m-2 -224
c28 -54 0 -81 -85 -81 -86 0 -95 5 -95 49 0 21 3 41 7 44 3 4 41 7 84 7 67 0
80 -3 89 -19z m-2315 -33 c18 -16 27 -34 28 -60 l2 -38 346 0 c335 0 347 -1
373 -21 31 -25 35 -76 9 -107 -17 -20 -31 -21 -372 -24 l-353 -4 -2 -513 -1
-513 -28 -24 c-37 -32 -77 -31 -108 2 l-24 26 0 506 c0 441 -2 508 -15 514 -8
4 -169 7 -357 7 l-342 1 -20 26 c-28 35 -26 69 4 99 l24 25 351 0 350 0 0 35
c0 73 80 110 135 63z m-1025 -133 c52 -27 100 -107 100 -169 0 -111 -89 -206
-192 -206 -17 0 -18 -27 -18 -428 l0 -429 37 -24 c90 -58 128 -177 83 -257
-25 -44 -66 -68 -99 -57 l-21 6 0 -570 0 -570 -26 -20 c-36 -28 -79 -27 -109
4 l-25 24 0 566 0 565 -39 0 c-133 0 -124 258 12 309 l27 11 0 449 c0 379 -2
450 -14 461 -27 21 -39 78 -26 111 28 67 94 79 136 24 19 -26 34 -35 55 -35
34 0 69 31 69 62 0 25 -27 58 -47 58 -22 0 -53 38 -53 67 0 41 26 63 77 63 24
0 57 -7 73 -15z m2070 -7 c11 -12 20 -32 20 -45 0 -26 -32 -63 -54 -63 -18 0
-46 -38 -46 -62 0 -27 36 -58 68 -58 19 0 35 10 55 35 34 42 64 45 106 9 26
-21 31 -33 31 -69 0 -27 -7 -51 -20 -68 -19 -24 -20 -40 -20 -469 l0 -443 37
-20 c57 -31 93 -96 93 -167 0 -93 -34 -142 -95 -140 l-35 1 0 -568 0 -568 -22
-20 c-45 -40 -82 -37 -120 11 -16 19 -18 66 -18 584 l0 562 -39 0 c-45 0 -71
25 -92 87 -25 77 27 192 101 223 l30 12 0 434 0 434 -22 0 c-32 1 -101 34
-128 61 -33 35 -60 99 -60 144 0 39 25 102 53 137 40 50 141 65 177 26z m1450
-48 c24 -24 25 -48 4 -78 -15 -21 -21 -22 -183 -22 -187 0 -181 -3 -181 70 0
21 6 41 13 43 6 3 83 6 170 6 144 1 159 -1 177 -19z m-2773 -176 c50 -14 68
-130 23 -154 -26 -14 -85 -13 -174 4 -114 22 -145 44 -146 104 0 25 5 35 23
42 25 10 240 13 274 4z m713 -7 c45 -23 35 -92 -18 -116 -39 -18 -158 -41
-212 -41 -57 0 -80 23 -80 77 0 52 19 81 54 86 77 10 232 6 256 -6z m1880 -66
c27 -52 -1 -81 -78 -81 -90 0 -102 6 -102 49 0 21 3 41 7 44 3 4 41 7 84 7 67
0 80 -3 89 -19z m-3008 -128 c23 -20 68 -47 98 -61 49 -22 70 -25 200 -28 124
-2 146 -5 157 -20 16 -22 17 -75 1 -109 l-11 -25 -147 0 c-153 0 -211 10 -295
52 -103 52 -152 144 -109 206 22 32 56 27 106 -15z m1378 17 c44 -44 15 -138
-59 -187 -81 -55 -135 -67 -313 -71 -192 -4 -192 -5 -186 91 l3 52 150 5 c168
6 218 22 303 93 50 42 73 46 102 17z m1628 -102 c17 -17 15 -54 -4 -72 -16
-16 -124 -23 -158 -10 -16 6 -23 73 -9 87 12 12 158 8 171 -5z m-4 -224 c9 -8
16 -26 16 -39 0 -41 -25 -55 -99 -55 -77 0 -91 9 -91 61 0 33 3 38 28 42 68
10 131 7 146 -9z m-2986 -84 c93 -56 118 -62 280 -67 138 -5 143 -6 159 -29
17 -27 13 -98 -7 -118 -19 -19 -311 -8 -385 15 -110 34 -185 101 -185 167 0
25 37 72 56 72 8 0 45 -18 82 -40z m1360 24 c17 -12 22 -25 22 -61 0 -43 -4
-51 -48 -93 -73 -70 -137 -87 -339 -92 -185 -3 -196 0 -196 69 0 79 3 80 175
86 174 5 203 12 284 67 66 45 71 46 102 24z m1626 -170 c20 -19 20 -44 2 -70
-12 -16 -26 -19 -84 -18 -38 1 -75 4 -81 8 -6 4 -11 25 -11 46 0 45 5 47 97
49 44 1 66 -4 77 -15z m-2995 -229 c125 -85 252 -95 378 -29 77 40 106 42 127
12 28 -39 20 -77 -23 -119 -66 -62 -135 -83 -276 -83 -101 0 -129 3 -175 22
-96 38 -160 107 -160 172 0 20 41 70 56 70 4 0 37 -20 73 -45z m1369 19 c16
-11 22 -25 22 -50 0 -69 -40 -117 -135 -161 -55 -26 -69 -28 -180 -28 -130 0
-195 15 -267 62 -41 28 -71 82 -62 110 11 30 36 53 57 53 10 0 52 -16 93 -36
64 -32 83 -37 151 -38 96 -1 144 13 219 64 66 45 71 46 102 24z m1831 -31 c23
-28 20 -59 -7 -80 -22 -18 -343 -18 -360 -1 -16 16 -16 95 1 101 6 3 87 6 179
6 l167 1 20 -27z m-201 -235 c7 -7 12 -21 12 -33 0 -37 -20 -45 -107 -45 l-83
0 0 45 0 45 83 0 c51 0 88 -5 95 -12z m-2290 -74 c21 -14 22 -23 22 -129 0
-135 -2 -138 -107 -133 -88 4 -95 16 -91 152 3 83 7 100 23 112 26 19 125 18
153 -2z m-849 -49 c106 -65 179 -85 324 -85 l127 0 0 -27 c1 -16 3 -71 6 -123
2 -52 2 -116 -2 -142 l-6 -48 -46 0 c-207 -1 -391 -160 -442 -379 -8 -35 -11
-93 -7 -164 4 -85 2 -106 -7 -91 -12 21 -23 1094 -11 1094 4 0 33 -16 64 -35z
m1609 -508 c-2 -397 -6 -537 -15 -552 -15 -25 -15 -19 -3 81 14 112 0 199 -46
294 -80 160 -230 259 -396 260 l-48 0 0 170 0 170 121 0 c101 0 132 4 192 24
72 25 162 70 173 87 21 34 24 -45 22 -534z m1526 417 c19 -19 20 -44 3 -68
-10 -14 -26 -16 -92 -14 l-80 3 -3 42 c-4 48 0 50 95 52 44 1 66 -4 77 -15z
m10 -237 c18 -51 1 -62 -95 -62 l-84 0 -3 39 c-2 24 2 42 10 48 7 4 47 7 88 6
72 -3 75 -4 84 -31z m-2290 -3 c22 -21 23 -166 1 -184 -8 -6 -40 -14 -72 -17
-48 -4 -62 -2 -83 15 -23 19 -25 26 -24 102 1 58 6 85 15 91 25 16 146 11 163
-7z m2274 -206 c7 -7 12 -20 12 -30 0 -16 -10 -18 -85 -18 -83 0 -85 0 -85 24
0 19 6 26 28 29 58 9 119 6 130 -5z m-2621 -113 c64 -27 118 -80 157 -154 41
-78 57 -91 111 -91 43 0 61 18 115 110 81 140 222 189 351 122 159 -83 154
-314 -8 -395 -50 -25 -133 -43 -133 -29 0 5 -18 19 -41 31 -66 37 -152 14
-185 -50 -29 -57 -13 -99 38 -99 35 0 68 -32 68 -66 0 -70 -51 -92 -210 -92
-63 0 -125 4 -139 10 -44 16 -71 49 -71 84 0 43 23 64 70 64 32 0 39 4 44 26
9 33 -19 91 -57 118 -41 30 -104 27 -150 -8 -35 -27 -39 -28 -86 -16 -175 42
-253 219 -159 361 34 50 117 89 190 89 32 0 75 -7 95 -15z m2313 -105 c0 -38
-2 -70 -5 -70 -6 0 -135 78 -153 93 -11 8 2 15 55 28 109 27 103 29 103 -51z
m510 25 c20 -21 22 -30 14 -52 -5 -15 -20 -33 -33 -40 -32 -16 -316 -9 -337 8
-17 14 -19 80 -2 97 8 8 61 12 173 12 160 0 162 0 185 -25z m-186 -267 c16
-45 -13 -68 -86 -68 -81 0 -98 11 -98 61 l0 40 87 -3 c85 -3 88 -4 97 -30z
m-10 -204 c20 -19 21 -58 1 -74 -20 -17 -83 -23 -130 -13 -38 9 -40 10 -40 48
0 33 4 40 25 46 48 13 128 10 144 -7z m-2801 -15 c47 -25 50 -67 7 -102 -35
-30 -37 -47 -12 -70 14 -13 29 -16 64 -11 41 6 47 4 66 -21 12 -15 22 -40 22
-56 0 -33 -42 -87 -73 -91 -18 -2 -22 -9 -21 -35 0 -18 1 -208 2 -421 l2 -388
45 -32 c120 -84 129 -280 16 -372 -19 -17 -41 -30 -48 -30 -10 0 -13 -148 -13
-739 l0 -738 -25 -27 c-32 -35 -92 -36 -124 -3 l-21 24 0 736 0 736 -27 15
c-61 31 -109 104 -119 179 -13 92 48 209 122 237 l24 10 0 420 0 420 -27 11
c-45 17 -73 50 -89 105 -18 61 -8 115 31 175 41 63 142 97 198 68z m1023 -21
c62 -43 94 -102 94 -175 0 -77 -39 -140 -97 -158 l-23 -6 0 -419 0 -419 29
-15 c101 -52 147 -205 94 -311 -21 -43 -84 -105 -105 -105 -17 0 -18 -35 -18
-740 l0 -741 -25 -24 c-24 -25 -65 -32 -100 -19 -45 18 -45 20 -45 793 0 722
0 730 -20 736 -34 11 -80 55 -102 99 -28 53 -30 155 -4 206 23 44 63 88 99
106 l27 15 0 422 0 423 -35 13 c-36 13 -65 53 -65 89 0 11 10 32 21 46 20 25
26 27 70 21 43 -6 49 -4 64 18 13 20 14 30 5 46 -6 12 -14 21 -19 21 -16 0
-31 50 -21 70 27 51 106 55 176 8z m495 -28 c53 -24 107 -25 156 -5 47 20 47
20 68 -18 14 -26 16 -51 14 -123 -4 -84 -6 -92 -37 -132 -19 -23 -37 -42 -42
-42 -4 0 -11 32 -14 70 -8 74 -11 78 -63 64 -20 -6 -22 -13 -25 -83 -3 -70 -5
-76 -25 -79 -31 -5 -46 37 -40 111 l5 57 -39 0 c-39 0 -39 0 -39 -40 0 -46
-17 -59 -56 -42 -22 11 -24 17 -24 89 l0 77 57 58 c32 32 58 58 59 58 1 0 21
-9 45 -20z m-2324 -5 c19 -8 50 -15 68 -15 18 0 52 7 75 15 23 8 49 15 57 15
8 0 39 -25 69 -56 l54 -57 0 -65 c0 -70 -16 -102 -51 -102 -13 0 -19 11 -25
45 -6 43 -8 45 -39 45 -37 0 -42 -11 -45 -105 -1 -60 -11 -72 -45 -57 -23 11
-25 16 -25 87 l0 75 -33 0 -34 0 -9 -67 c-5 -38 -13 -68 -19 -67 -5 0 -23 18
-40 38 -28 35 -30 45 -33 131 -3 71 0 100 12 124 19 36 16 35 63 16z m3617
-177 c7 -11 7 -26 0 -45 -9 -26 -13 -28 -74 -31 -97 -5 -110 1 -110 47 0 21 3
41 7 45 4 4 43 5 86 4 62 -2 82 -7 91 -20z m-2244 -1650 l0 -1508 -125 0 -125
0 0 1508 0 1508 125 0 125 0 0 -1508z m2425 1417 c30 -29 31 -45 6 -76 -19
-24 -21 -24 -183 -21 -182 4 -190 7 -190 67 0 21 6 41 14 46 7 5 84 9 171 9
154 0 158 -1 182 -25z m-187 -237 c17 -17 15 -54 -4 -72 -16 -16 -124 -23
-158 -10 -16 6 -23 73 -9 87 12 12 158 8 171 -5z m0 -220 c17 -17 15 -54 -4
-72 -16 -16 -124 -23 -158 -10 -16 6 -23 73 -9 87 12 12 158 8 171 -5z m4
-233 c8 -19 8 -31 0 -50 -11 -23 -17 -25 -81 -25 -92 0 -101 4 -101 49 0 21 3
41 7 44 3 4 42 7 85 7 74 0 79 -1 90 -25z m-2 -220 c18 -22 4 -64 -26 -76 -15
-5 -55 -6 -90 -3 l-64 7 0 43 0 44 84 0 c62 0 87 -4 96 -15z m197 -207 c29
-27 29 -45 1 -75 -21 -22 -27 -23 -183 -23 -184 0 -200 5 -198 63 1 20 4 40 8
46 4 7 67 11 177 11 163 0 173 -1 195 -22z m-203 -234 c20 -19 21 -58 2 -73
-9 -8 -43 -11 -93 -9 l-78 3 -3 42 c-4 48 0 50 95 52 44 1 66 -4 77 -15z m11
-235 c4 -11 4 -31 1 -44 -8 -30 -53 -40 -131 -30 l-55 6 0 38 c0 21 3 41 7 44
3 4 44 7 89 7 75 0 83 -2 89 -21z m-7 -211 c16 -16 15 -63 -2 -77 -9 -8 -43
-11 -93 -9 l-78 3 -3 39 c-2 24 2 42 10 47 20 13 152 11 166 -3z m161 -219
c31 -11 46 -39 39 -75 -6 -35 -46 -44 -204 -44 -172 0 -177 2 -172 72 l3 43
150 5 c83 3 150 7 151 8 1 1 15 -3 33 -9z m-165 -265 c20 -19 21 -58 2 -73 -9
-8 -43 -11 -93 -9 l-78 3 -3 39 c-4 49 6 56 90 56 47 0 71 -5 82 -16z m-13
-224 c39 -21 18 -30 -71 -30 -68 0 -90 3 -90 13 0 8 3 17 7 20 10 11 132 8
154 -3z m805 -196 c-3 -9 -6 -19 -6 -22 0 -4 -252 -6 -560 -5 -403 2 -559 0
-554 -8 4 -7 0 -9 -14 -5 -30 10 -75 -51 -71 -96 2 -18 8 -39 13 -47 9 -12 7
-12 -11 -2 -57 30 -70 121 -24 170 l29 31 602 0 c540 -1 601 -2 596 -16z m75
-11 c13 -15 12 -15 -6 -6 -11 6 -27 13 -35 16 -10 4 -8 6 6 6 12 1 28 -6 35
-16z m-3535 -58 c57 -39 51 -126 -10 -149 -21 -7 -96 -9 -231 -6 l-200 5 58
44 c35 25 65 57 73 76 l14 33 50 -19 c66 -25 87 -24 152 6 62 29 67 30 94 10z
m700 -10 c55 -29 83 -31 149 -8 41 14 50 14 53 2 3 -8 34 -42 70 -76 l66 -62
-199 -3 c-110 -2 -210 0 -223 4 -28 10 -55 69 -46 103 7 27 48 65 70 65 7 0
34 -11 60 -25z m1634 15 c8 -5 11 -10 5 -10 -5 0 -17 5 -25 10 -8 5 -10 10 -5
10 6 0 17 -5 25 -10z m-45 -29 c3 -5 2 -12 -3 -15 -5 -3 -9 1 -9 9 0 17 3 19
12 6z m1255 -81 c0 -11 -33 -30 -52 -29 -7 0 -1 5 15 11 15 5 25 14 21 19 -3
5 0 9 5 9 6 0 11 -4 11 -10z m-817 -37 c-24 -2 -62 -2 -85 0 -24 2 -5 4 42 4
47 0 66 -2 43 -4z"/>
<path d="M3997 8675 c-32 -33 -41 -68 -27 -111 38 -116 199 -88 200 34 0 35
-6 49 -29 73 -40 39 -106 41 -144 4z"/>
<path d="M4376 8669 c-39 -46 -36 -101 8 -145 45 -45 100 -48 138 -6 48 50 48
109 1 156 -20 21 -36 26 -73 26 -42 0 -52 -4 -74 -31z"/>
<path d="M4218 8471 c-34 -40 -55 -116 -38 -136 15 -18 34 -19 60 -3 15 10 22
10 32 0 6 -6 25 -12 40 -12 40 0 46 36 17 96 -25 53 -52 84 -73 84 -8 0 -25
-13 -38 -29z"/>
<path d="M7002 3564 c-26 -18 -29 -56 -6 -78 19 -19 33 -20 57 -2 24 18 19 64
-8 82 -18 12 -24 11 -43 -2z"/>
<path d="M3055 6100 c-27 -29 -24 -78 6 -101 31 -24 50 -24 83 2 17 14 26 30
26 50 0 60 -76 92 -115 49z"/>
<path d="M5370 6100 c-29 -29 -26 -74 6 -99 36 -28 60 -26 89 5 30 33 31 53 4
88 -25 32 -70 35 -99 6z"/>
<path d="M3735 3355 c-52 -51 -16 -145 54 -145 46 0 85 39 85 85 0 74 -88 112
-139 60z"/>
<path d="M4681 3354 c-35 -29 -39 -59 -16 -103 27 -52 90 -57 129 -10 34 40
33 74 -3 110 -36 36 -70 37 -110 3z"/>
<path d="M1966 1249 c-32 -25 -34 -66 -6 -97 41 -44 120 -11 120 50 0 29 -41
68 -70 68 -10 0 -29 -9 -44 -21z"/>
<path d="M8226 1249 c-32 -25 -35 -70 -6 -99 42 -42 113 -11 113 50 0 22 -7
39 -22 52 -30 23 -52 23 -85 -3z"/>
</g>
</svg>
